<svg xmlns="http://www.w3.org/2000/svg" xmlns:xlink="http://www.w3.org/1999/xlink" contentStyleType="text/css" height="169px" preserveAspectRatio="none" style="width:1344px;height:169px;background:#FFFFFF;" version="1.1" viewBox="0 0 1344 169" width="1344px" zoomAndPan="magnify"><defs/><g><!--cluster ATS System--><g id="cluster_ATS System"><rect fill="none" height="110" rx="2.5" ry="2.5" style="stroke:#181818;stroke-width:1;" width="1062" x="7" y="7"/><text fill="#000000" font-family="sans-serif" font-size="14" font-weight="bold" lengthAdjust="spacing" textLength="81.6963" x="497.1519" y="23.5332">ATS System</text></g><g id="elem_TriggerAIScreening"><ellipse cx="108.8588" cy="77.0718" fill="#F1F1F1" rx="85.8588" ry="19.5718" style="stroke:#181818;stroke-width:0.5;"/><text fill="#000000" font-family="sans-serif" font-size="14" lengthAdjust="spacing" textLength="128.3926" x="44.6625" y="80.8003">Trigger AI Screening</text></g><g id="elem_AnalyzeProfile"><ellipse cx="387.9212" cy="71.7842" fill="#F1F1F1" rx="131.9212" ry="28.7842" style="stroke:#181818;stroke-width:0.5;"/><text fill="#000000" font-family="sans-serif" font-size="14" lengthAdjust="spacing" textLength="230.3438" x="272.7494" y="75.5128">Analyze Candidate Profile &amp; Resume</text></g><g id="elem_RankCandidates"><ellipse cx="681.0979" cy="72.9196" fill="#F1F1F1" rx="100.0979" ry="22.4196" style="stroke:#181818;stroke-width:0.5;"/><text fill="#000000" font-family="sans-serif" font-size="14" lengthAdjust="spacing" textLength="161.0889" x="600.5535" y="76.6481">Score &amp; Rank Candidates</text></g><g id="elem_ReviewCandidates"><ellipse cx="947.3355" cy="74.9671" fill="#F1F1F1" rx="105.3355" ry="23.4671" style="stroke:#181818;stroke-width:0.5;"/><text fill="#000000" font-family="sans-serif" font-size="14" lengthAdjust="spacing" textLength="172.7646" x="860.9532" y="78.6956">Review Ranked Candidates</text></g><!--entity Recruiter--><g id="elem_Recruiter"><ellipse cx="1309.3965" cy="94.5" fill="#F1F1F1" rx="8" ry="8" style="stroke:#181818;stroke-width:0.5;"/><path d="M1309.3965,102.5 L1309.3965,129.5 M1296.3965,110.5 L1322.3965,110.5 M1309.3965,129.5 L1296.3965,144.5 M1309.3965,129.5 L1322.3965,144.5 " fill="none" style="stroke:#181818;stroke-width:0.5;"/><text fill="#000000" font-family="sans-serif" font-size="14" lengthAdjust="spacing" textLength="56.793" x="1281" y="160.5332">Recruiter</text></g><!--link Recruiter to TriggerAIScreening--><g id="link_Recruiter_TriggerAIScreening"><path d="M1280.55,128.79 C1220.11,136.65 1072.65,154 948.5,154 C387,154 387,154 387,154 C298.65,154 205.5655,119.5753 153.1255,96.8553 " fill="none" id="Recruiter-to-TriggerAIScreening" style="stroke:#181818;stroke-width:1;"/><polygon fill="#181818" points="147.62,94.47,154.288,101.7183,152.2079,96.4577,157.4684,94.3776,147.62,94.47" style="stroke:#181818;stroke-width:1;"/></g><!--link TriggerAIScreening to AnalyzeProfile--><g id="link_TriggerAIScreening_AnalyzeProfile"><path d="M194.99,75.47 C214.39,75.12 229.451,74.8495 250.271,74.4695 " fill="none" id="TriggerAIScreening-to-AnalyzeProfile" style="stroke:#181818;stroke-width:1;"/><polygon fill="#181818" points="256.27,74.36,247.1985,70.5249,251.2708,74.4512,247.3445,78.5236,256.27,74.36" style="stroke:#181818;stroke-width:1;"/></g><!--link AnalyzeProfile to RankCandidates--><g id="link_AnalyzeProfile_RankCandidates"><path d="M520.03,72.45 C540.39,72.52 555.14,72.5685 574.65,72.6385 " fill="none" id="AnalyzeProfile-to-RankCandidates" style="stroke:#181818;stroke-width:1;"/><polygon fill="#181818" points="580.65,72.66,571.6644,68.6277,575.65,72.6421,571.6357,76.6277,580.65,72.66" style="stroke:#181818;stroke-width:1;"/></g><!--link RankCandidates to ReviewCandidates--><g id="link_RankCandidates_ReviewCandidates"><path d="M781.24,73.75 C801.03,73.9 815.8702,74.0149 835.8402,74.1649 " fill="none" id="RankCandidates-to-ReviewCandidates" style="stroke:#181818;stroke-width:1;"/><polygon fill="#181818" points="841.84,74.21,832.8703,70.1425,836.8401,74.1724,832.8102,78.1423,841.84,74.21" style="stroke:#181818;stroke-width:1;"/></g><!--link ReviewCandidates to Recruiter--><g id="link_ReviewCandidates_Recruiter"><path d="M1037.49,87.36 C1117.24,98.44 1223.3772,113.1736 1274.7972,120.3236 " fill="none" id="ReviewCandidates-to-Recruiter" style="stroke:#181818;stroke-width:1;"/><polygon fill="#181818" points="1280.74,121.15,1272.3767,115.9486,1275.7876,120.4614,1271.2749,123.8723,1280.74,121.15" style="stroke:#181818;stroke-width:1;"/><text fill="#000000" font-family="sans-serif" font-size="13" lengthAdjust="spacing" textLength="164.7534" x="1086" y="91.4951">Access ranked candidate list</text></g><!--SRC=[RL3DRi8m3BxdAQmUkF42EqoAE753b1U8NDDPAubakvi0xTqNGbUMGcx-_lBP0nqDB85m_s7GiH0Qf-W2MXBO4yh8HkBSZGYn7mWQVsYXFQlHgO6hW_n69GoQgKFEwKd0Rw558OeS-mQ2maJuxGpNHX_3SBuGR4Bik0j6i9DqvFpTAhVGyKGbPf9DN1tHOf8Y3_7paQF5TyCUKEtRqnVJTv5GzsGiv3_hZtFpLM2zVd-rsJDKb8lozLWKYvhrU5Si-oo1IVNNy0qy8gc2tDV3-Ru3gxbV]--></g></svg>