<svg xmlns="http://www.w3.org/2000/svg" xmlns:xlink="http://www.w3.org/1999/xlink" contentStyleType="text/css" height="117px" preserveAspectRatio="none" style="width:1341px;height:117px;background:#FFFFFF;" version="1.1" viewBox="0 0 1341 117" width="1341px" zoomAndPan="magnify"><defs/><g><!--cluster ATS System--><g id="cluster_ATS System"><rect fill="none" height="104" rx="2.5" ry="2.5" style="stroke:#181818;stroke-width:1;" width="962" x="117" y="7"/><text fill="#000000" font-family="sans-serif" font-size="14" font-weight="bold" lengthAdjust="spacing" textLength="81.6963" x="557.1519" y="23.5332">ATS System</text></g><g id="elem_UploadResume"><ellipse cx="207.6241" cy="68.8248" fill="#F1F1F1" rx="74.6241" ry="17.3248" style="stroke:#181818;stroke-width:0.5;"/><text fill="#000000" font-family="sans-serif" font-size="14" lengthAdjust="spacing" textLength="100.3857" x="154.4312" y="73.3414">Upload Resume</text></g><g id="elem_ParseResume"><ellipse cx="457.8898" cy="68.878" fill="#F1F1F1" rx="114.8898" ry="25.378" style="stroke:#181818;stroke-width:0.5;"/><text fill="#000000" font-family="sans-serif" font-size="14" lengthAdjust="spacing" textLength="193.7305" x="361.0245" y="72.6065">Extract Resume Data (Parsing)</text></g><g id="elem_ValidateData"><ellipse cx="721.5215" cy="68.9043" fill="#F1F1F1" rx="87.5215" ry="19.9043" style="stroke:#181818;stroke-width:0.5;"/><text fill="#000000" font-family="sans-serif" font-size="14" lengthAdjust="spacing" textLength="132.3027" x="655.3701" y="72.6328">Validate Parsed Data</text></g><g id="elem_CreateProfile"><ellipse cx="966.6476" cy="69.2295" fill="#F1F1F1" rx="96.6476" ry="21.7295" style="stroke:#181818;stroke-width:0.5;"/><text fill="#000000" font-family="sans-serif" font-size="14" lengthAdjust="spacing" textLength="153.3096" x="889.9928" y="72.958">Create Candidate Profile</text></g><!--entity Candidate--><g id="elem_Candidate"><ellipse cx="37.9136" cy="38.5" fill="#F1F1F1" rx="8" ry="8" style="stroke:#181818;stroke-width:0.5;"/><path d="M37.9136,46.5 L37.9136,73.5 M24.9136,54.5 L50.9136,54.5 M37.9136,73.5 L24.9136,88.5 M37.9136,73.5 L50.9136,88.5 " fill="none" style="stroke:#181818;stroke-width:0.5;"/><text fill="#000000" font-family="sans-serif" font-size="14" lengthAdjust="spacing" textLength="63.8271" x="6" y="104.5332">Candidate</text></g><!--entity Recruiter--><g id="elem_Recruiter"><ellipse cx="1306.3965" cy="38.5" fill="#F1F1F1" rx="8" ry="8" style="stroke:#181818;stroke-width:0.5;"/><path d="M1306.3965,46.5 L1306.3965,73.5 M1293.3965,54.5 L1319.3965,54.5 M1306.3965,73.5 L1293.3965,88.5 M1306.3965,73.5 L1319.3965,88.5 " fill="none" style="stroke:#181818;stroke-width:0.5;"/><text fill="#000000" font-family="sans-serif" font-size="14" lengthAdjust="spacing" textLength="56.793" x="1278" y="104.5332">Recruiter</text></g><!--link Candidate to UploadResume--><g id="link_Candidate_UploadResume"><path d="M70.11,69 C87.8,69 104.77,69 126.79,69 " fill="none" id="Candidate-to-UploadResume" style="stroke:#181818;stroke-width:1;"/><polygon fill="#181818" points="132.79,69,123.79,65,127.79,69,123.79,73,132.79,69" style="stroke:#181818;stroke-width:1;"/></g><!--link UploadResume to ParseResume--><g id="link_UploadResume_ParseResume"><path d="M282.05,69 C301.08,69 316.04,69 336.62,69 " fill="none" id="UploadResume-to-ParseResume" style="stroke:#181818;stroke-width:1;"/><polygon fill="#181818" points="342.62,69,333.62,65,337.62,69,333.62,73,342.62,69" style="stroke:#181818;stroke-width:1;"/></g><!--link ParseResume to ValidateData--><g id="link_ParseResume_ValidateData"><path d="M573.32,69 C593.66,69 608.54,69 627.94,69 " fill="none" id="ParseResume-to-ValidateData" style="stroke:#181818;stroke-width:1;"/><polygon fill="#181818" points="633.94,69,624.94,65,628.94,69,624.94,73,633.94,69" style="stroke:#181818;stroke-width:1;"/></g><!--link ValidateData to CreateProfile--><g id="link_ValidateData_CreateProfile"><path d="M809.2,69 C828.83,69 843.78,69 863.75,69 " fill="none" id="ValidateData-to-CreateProfile" style="stroke:#181818;stroke-width:1;"/><polygon fill="#181818" points="869.75,69,860.75,65,864.75,69,860.75,73,869.75,69" style="stroke:#181818;stroke-width:1;"/></g><!--link CreateProfile to Recruiter--><g id="link_CreateProfile_Recruiter"><path d="M1063,69 C1135.82,69 1225.24,69 1271.69,69 " fill="none" id="CreateProfile-to-Recruiter" style="stroke:#181818;stroke-width:1;"/><polygon fill="#181818" points="1277.69,69,1268.69,65,1272.69,69,1268.69,73,1277.69,69" style="stroke:#181818;stroke-width:1;"/><text fill="#000000" font-family="sans-serif" font-size="13" lengthAdjust="spacing" textLength="151.7344" x="1096" y="65.4951">Profile available for review</text></g><!--SRC=[RL79Ri8m4BtxAqOvqGC_q0CIehsZijo7U196CZ4QJrY4-kzrx41Z2P_yDiqRsr6Ze1w4swE2PQ5QsNS6Q_K2A-miMrGQyG_LqhEI63COiMiTGRNSRc1p3qgd2Xu6uka3rHYYj3ixZpRcGd-Y2Z10PZ9HUhzlAd7CQ8OlL8JP6YLmrtwax03eNNIFBjNC3fkoAV4K1gACh8I6m6j3M8jlsEMIMHmPyslClsq-NvGxJ45IfoqdzwGLVQOWgUNO0YNzzVpm-QmBU45sU8Yt9dwGq8NfQlu0]--></g></svg>